<svg width="139" height="40" viewBox="0 0 139 40" fill="none" xmlns="http://www.w3.org/2000/svg">
<g id="appstore">
<g id="Group">
<path id="Vector" d="M137.693 35.3869C137.693 37.5186 135.93 39.2453 133.75 39.2453H4.71755C2.53838 39.2453 0.769531 37.5186 0.769531 35.3869V4.61806C0.769531 2.48742 2.53838 0.7547 4.71755 0.7547H133.749C135.93 0.7547 137.692 2.48742 137.692 4.61806L137.693 35.3869Z" fill="black"/>
<path id="path16" d="M133.333 0.801256C135.708 0.801256 137.64 2.68501 137.64 5.00001V35C137.64 37.315 135.708 39.1988 133.333 39.1988H5.12821C2.75385 39.1988 0.821795 37.315 0.821795 35V5.00001C0.821795 2.68501 2.75385 0.801256 5.12821 0.801256H133.333ZM133.333 6.83814e-06H5.12821C2.30897 6.83814e-06 0 2.25126 0 5.00001V35C0 37.7488 2.30897 40 5.12821 40H133.333C136.153 40 138.462 37.7488 138.462 35V5.00001C138.462 2.25126 136.153 6.83814e-06 133.333 6.83814e-06Z" fill="#A6A6A6"/>
<g id="Group_2">
<g id="Group_3">
<g id="Vector_2">
<path d="M30.9002 19.784C30.8705 16.561 33.6069 14.993 33.732 14.92C32.1823 12.717 29.7802 12.416 28.9361 12.392C26.9187 12.185 24.9618 13.569 23.9341 13.569C22.8859 13.569 21.3033 12.412 19.5977 12.446C17.4028 12.479 15.3495 13.718 14.2233 15.642C11.8992 19.565 13.6325 25.33 15.8592 28.501C16.9731 30.054 18.2746 31.788 19.9782 31.727C21.6449 31.66 22.2674 30.691 24.2787 30.691C26.2715 30.691 26.8561 31.727 28.5936 31.688C30.3823 31.66 31.5084 30.128 32.5833 28.561C33.8705 26.781 34.3874 25.028 34.4079 24.938C34.3659 24.924 30.9341 23.647 30.9002 19.784Z" fill="white"/>
<path d="M27.6182 10.306C28.5146 9.21304 29.1279 7.72604 28.9577 6.21704C27.6602 6.27304 26.0377 7.09204 25.1033 8.16104C24.2767 9.10304 23.5382 10.647 23.729 12.099C25.1864 12.205 26.6828 11.382 27.6182 10.306Z" fill="white"/>
</g>
</g>
</g>
<g id="Group_4">
<path id="Vector_3" d="M55.0206 31.504H52.6914L51.4155 27.595H46.9806L45.7652 31.504H43.4976L47.8914 18.196H50.6052L55.0206 31.504ZM51.0309 25.955L49.877 22.48C49.755 22.125 49.5263 21.289 49.1888 19.973H49.1478C49.0135 20.539 48.797 21.375 48.4996 22.48L47.3663 25.955H51.0309Z" fill="white"/>
<path id="Vector_4" d="M66.3207 26.5879C66.3207 28.2199 65.8684 29.5099 64.9638 30.4569C64.1535 31.2999 63.1474 31.7209 61.9464 31.7209C60.65 31.7209 59.7187 31.2669 59.1515 30.3589H59.1105V35.4139H56.9238V25.0669C56.9238 24.0409 56.8961 22.9879 56.8428 21.9079H58.7659L58.8879 23.4289H58.9289C59.6582 22.2829 60.7648 21.7109 62.25 21.7109C63.411 21.7109 64.3802 22.1579 65.1556 23.0529C65.933 23.9489 66.3207 25.1269 66.3207 26.5879ZM64.093 26.6659C64.093 25.7319 63.8776 24.9619 63.4448 24.3559C62.972 23.7239 62.3371 23.4079 61.5412 23.4079C61.0017 23.4079 60.5115 23.5839 60.0735 23.9309C59.6346 24.2809 59.3474 24.7379 59.213 25.3039C59.1453 25.5679 59.1115 25.7839 59.1115 25.9539V27.5539C59.1115 28.2519 59.331 28.8409 59.77 29.3219C60.2089 29.8029 60.7792 30.0429 61.4807 30.0429C62.3043 30.0429 62.9453 29.7329 63.4038 29.1149C63.8633 28.4959 64.093 27.6799 64.093 26.6659Z" fill="white"/>
<path id="Vector_5" d="M77.6405 26.5879C77.6405 28.2199 77.1882 29.5099 76.2826 30.4569C75.4733 31.2999 74.4672 31.7209 73.2661 31.7209C71.9697 31.7209 71.0384 31.2669 70.4723 30.3589H70.4313V35.4139H68.2446V25.0669C68.2446 24.0409 68.2169 22.9879 68.1636 21.9079H70.0867L70.2087 23.4289H70.2497C70.9779 22.2829 72.0846 21.7109 73.5708 21.7109C74.7308 21.7109 75.7 22.1579 76.4774 23.0529C77.2518 23.9489 77.6405 25.1269 77.6405 26.5879ZM75.4128 26.6659C75.4128 25.7319 75.1964 24.9619 74.7636 24.3559C74.2908 23.7239 73.6579 23.4079 72.861 23.4079C72.3205 23.4079 71.8313 23.5839 71.3923 23.9309C70.9533 24.2809 70.6672 24.7379 70.5328 25.3039C70.4661 25.5679 70.4313 25.7839 70.4313 25.9539V27.5539C70.4313 28.2519 70.6508 28.8409 71.0877 29.3219C71.5266 29.8019 72.0969 30.0429 72.8005 30.0429C73.6241 30.0429 74.2651 29.7329 74.7236 29.1149C75.1831 28.4959 75.4128 27.6799 75.4128 26.6659Z" fill="white"/>
<path id="Vector_6" d="M90.2966 27.772C90.2966 28.904 89.8935 29.825 89.0842 30.536C88.195 31.313 86.9571 31.701 85.3663 31.701C83.8976 31.701 82.7201 31.425 81.8289 30.872L82.3355 29.095C83.2955 29.661 84.3489 29.945 85.4966 29.945C86.3201 29.945 86.9612 29.763 87.4217 29.401C87.8801 29.039 88.1089 28.553 88.1089 27.947C88.1089 27.407 87.9201 26.952 87.5417 26.583C87.1653 26.214 86.5366 25.871 85.6586 25.554C83.2689 24.685 82.075 23.412 82.075 21.738C82.075 20.644 82.4935 19.747 83.3314 19.049C84.1663 18.35 85.2801 18.001 86.673 18.001C87.915 18.001 88.9468 18.212 89.7704 18.633L89.2237 20.371C88.4545 19.963 87.5848 19.759 86.6114 19.759C85.8422 19.759 85.2412 19.944 84.8104 20.312C84.4463 20.641 84.2637 21.042 84.2637 21.517C84.2637 22.043 84.4719 22.478 84.8904 22.82C85.2545 23.136 85.916 23.478 86.876 23.847C88.0504 24.308 88.913 24.847 89.4678 25.465C90.0207 26.081 90.2966 26.852 90.2966 27.772Z" fill="white"/>
<path id="Vector_7" d="M97.5266 23.508H95.1163V28.167C95.1163 29.352 95.5409 29.944 96.3922 29.944C96.783 29.944 97.1071 29.911 97.3635 29.845L97.424 31.464C96.9932 31.621 96.426 31.7 95.7235 31.7C94.8599 31.7 94.185 31.443 93.6978 30.93C93.2127 30.416 92.9686 29.554 92.9686 28.343V23.506H91.5327V21.906H92.9686V20.149L95.1163 19.517V21.906H97.5266V23.508Z" fill="white"/>
<path id="Vector_8" d="M108.402 26.6269C108.402 28.1019 107.969 29.3129 107.105 30.2599C106.2 31.2349 104.998 31.7209 103.499 31.7209C102.055 31.7209 100.905 31.2539 100.048 30.3199C99.1904 29.3859 98.7617 28.2069 98.7617 26.7859C98.7617 25.2989 99.2027 24.0809 100.088 23.1339C100.971 22.1859 102.163 21.7119 103.661 21.7119C105.105 21.7119 106.267 22.1789 107.144 23.1139C107.983 24.0209 108.402 25.1919 108.402 26.6269ZM106.133 26.6959C106.133 25.8109 105.939 25.0519 105.546 24.4189C105.088 23.6529 104.432 23.2709 103.583 23.2709C102.704 23.2709 102.037 23.6539 101.578 24.4189C101.185 25.0529 100.991 25.8239 100.991 26.7359C100.991 27.6209 101.185 28.3799 101.578 29.0119C102.051 29.7779 102.711 30.1599 103.564 30.1599C104.399 30.1599 105.054 29.7699 105.527 28.9919C105.93 28.3469 106.133 27.5799 106.133 26.6959Z" fill="white"/>
<path id="Vector_9" d="M115.509 23.7829C115.293 23.7439 115.062 23.7239 114.82 23.7239C114.051 23.7239 113.456 24.0069 113.038 24.5739C112.673 25.0739 112.491 25.7059 112.491 26.4689V31.5039H110.305L110.326 24.9299C110.326 23.8239 110.298 22.8169 110.244 21.9089H112.148L112.228 23.7449H112.289C112.52 23.1139 112.884 22.6059 113.382 22.2249C113.869 21.8819 114.395 21.7109 114.963 21.7109C115.165 21.7109 115.347 21.7249 115.509 21.7499V23.7829Z" fill="white"/>
<path id="Vector_10" d="M125.289 26.252C125.289 26.634 125.263 26.956 125.209 27.219H118.649C118.674 28.167 118.991 28.892 119.6 29.392C120.153 29.839 120.868 30.063 121.746 30.063C122.717 30.063 123.604 29.912 124.4 29.609L124.743 31.089C123.812 31.485 122.712 31.682 121.444 31.682C119.917 31.682 118.719 31.244 117.848 30.369C116.978 29.494 116.542 28.319 116.542 26.845C116.542 25.398 116.947 24.193 117.758 23.232C118.608 22.206 119.755 21.693 121.199 21.693C122.618 21.693 123.692 22.206 124.421 23.232C124.998 24.047 125.289 25.055 125.289 26.252ZM123.204 25.699C123.218 25.067 123.075 24.521 122.779 24.06C122.4 23.467 121.819 23.171 121.036 23.171C120.321 23.171 119.74 23.46 119.296 24.04C118.932 24.501 118.715 25.054 118.649 25.698H123.204V25.699Z" fill="white"/>
</g>
<g id="Group_5">
<g id="Group_6">
<path id="Vector_11" d="M50.3084 10.0091C50.3084 11.1861 49.9464 12.0721 49.2233 12.6671C48.5536 13.2161 47.6018 13.4911 46.3689 13.4911C45.7577 13.4911 45.2346 13.4651 44.7966 13.4131V6.98207C45.3679 6.89207 45.9833 6.84607 46.6479 6.84607C47.8223 6.84607 48.7074 7.09507 49.3043 7.59307C49.973 8.15607 50.3084 8.96107 50.3084 10.0091ZM49.1751 10.0381C49.1751 9.27507 48.9679 8.69007 48.5536 8.28207C48.1392 7.87507 47.5341 7.67107 46.7371 7.67107C46.3987 7.67107 46.1105 7.69307 45.8715 7.73907V12.6281C46.0038 12.6481 46.2459 12.6571 46.5977 12.6571C47.4202 12.6571 48.0551 12.4341 48.5023 11.9881C48.9495 11.5421 49.1751 10.8921 49.1751 10.0381Z" fill="white"/>
<path id="Vector_12" d="M56.3174 11.037C56.3174 11.762 56.1051 12.356 55.6805 12.822C55.2354 13.301 54.6456 13.54 53.9092 13.54C53.1995 13.54 52.6343 13.311 52.2128 12.851C51.7923 12.392 51.582 11.813 51.582 11.115C51.582 10.385 51.7984 9.78605 52.2333 9.32105C52.6682 8.85605 53.2528 8.62305 53.9892 8.62305C54.699 8.62305 55.2692 8.85205 55.701 9.31105C56.1113 9.75705 56.3174 10.333 56.3174 11.037ZM55.2025 11.071C55.2025 10.636 55.1061 10.263 54.9143 9.95205C54.6887 9.57605 54.3677 9.38805 53.9502 9.38805C53.5184 9.38805 53.1902 9.57605 52.9646 9.95205C52.7718 10.263 52.6764 10.642 52.6764 11.09C52.6764 11.525 52.7728 11.898 52.9646 12.209C53.1974 12.585 53.5215 12.773 53.94 12.773C54.3502 12.773 54.6723 12.582 54.9041 12.199C55.1031 11.882 55.2025 11.506 55.2025 11.071Z" fill="white"/>
<path id="Vector_13" d="M64.375 8.71899L62.8622 13.433H61.8776L61.2509 11.386C61.0919 10.875 60.9627 10.367 60.8622 9.86299H60.8427C60.7494 10.381 60.6201 10.888 60.454 11.386L59.7883 13.433H58.7924L57.3699 8.71899H58.4745L59.0212 10.96C59.1535 11.49 59.2622 11.995 59.3494 12.473H59.3688C59.4488 12.079 59.5812 11.577 59.7678 10.97L60.454 8.71999H61.3299L61.9873 10.922C62.1463 11.459 62.2755 11.976 62.375 12.474H62.4047C62.4776 11.989 62.5873 11.472 62.7329 10.922L63.3196 8.71999H64.375V8.71899Z" fill="white"/>
<path id="Vector_14" d="M69.9469 13.4331H68.8721V10.7331C68.8721 9.90106 68.5479 9.48506 67.8977 9.48506C67.5787 9.48506 67.3213 9.59906 67.1213 9.82806C66.9233 10.0571 66.8228 10.3271 66.8228 10.6361V13.4321H65.748V10.0661C65.748 9.65206 65.7346 9.20306 65.709 8.71706H66.6536L66.7039 9.45406H66.7336C66.8587 9.22506 67.0454 9.03606 67.2905 8.88506C67.5818 8.70906 67.908 8.62006 68.2649 8.62006C68.7162 8.62006 69.0915 8.76206 69.39 9.04706C69.7613 9.39606 69.9469 9.91706 69.9469 10.6091V13.4331Z" fill="white"/>
<path id="Vector_15" d="M72.9115 13.4331H71.8376V6.55609H72.9115V13.4331Z" fill="white"/>
<path id="Vector_16" d="M79.2398 11.037C79.2398 11.762 79.0275 12.356 78.6029 12.822C78.1577 13.301 77.567 13.54 76.8316 13.54C76.1208 13.54 75.5557 13.311 75.1352 12.851C74.7146 12.392 74.5044 11.813 74.5044 11.115C74.5044 10.385 74.7208 9.78605 75.1557 9.32105C75.5906 8.85605 76.1752 8.62305 76.9105 8.62305C77.6213 8.62305 78.1905 8.85205 78.6234 9.31105C79.0336 9.75705 79.2398 10.333 79.2398 11.037ZM78.1239 11.071C78.1239 10.636 78.0275 10.263 77.8357 9.95205C77.6111 9.57605 77.289 9.38805 76.8726 9.38805C76.4398 9.38805 76.1116 9.57605 75.887 9.95205C75.6941 10.263 75.5988 10.642 75.5988 11.09C75.5988 11.525 75.6952 11.898 75.887 12.209C76.1198 12.585 76.4439 12.773 76.8623 12.773C77.2726 12.773 77.5936 12.582 77.8254 12.199C78.0254 11.882 78.1239 11.506 78.1239 11.071Z" fill="white"/>
<path id="Vector_17" d="M84.4421 13.433H83.477L83.397 12.89H83.3673C83.037 13.323 82.5662 13.54 81.9549 13.54C81.4985 13.54 81.1293 13.397 80.8514 13.113C80.5991 12.855 80.4729 12.534 80.4729 12.153C80.4729 11.577 80.7191 11.138 81.2144 10.834C81.7088 10.53 82.4042 10.381 83.2996 10.388V10.3C83.2996 9.67905 82.9652 9.36905 82.2955 9.36905C81.8185 9.36905 81.398 9.48605 81.035 9.71805L80.8165 9.03005C81.2657 8.75905 81.8206 8.62305 82.475 8.62305C83.7385 8.62305 84.3724 9.27305 84.3724 10.573V12.309C84.3724 12.78 84.396 13.155 84.4421 13.433ZM83.3262 11.813V11.086C82.1406 11.066 81.5478 11.383 81.5478 12.036C81.5478 12.282 81.6155 12.466 81.7539 12.589C81.8924 12.712 82.0688 12.773 82.2791 12.773C82.515 12.773 82.7355 12.7 82.9365 12.555C83.1385 12.409 83.2626 12.224 83.3088 11.997C83.3201 11.946 83.3262 11.884 83.3262 11.813Z" fill="white"/>
<path id="Vector_18" d="M90.549 13.4331H89.5951L89.5449 12.6761H89.5151C89.2105 13.2521 88.6915 13.5401 87.9623 13.5401C87.3797 13.5401 86.8946 13.3171 86.51 12.8711C86.1254 12.4251 85.9336 11.8461 85.9336 11.1351C85.9336 10.3721 86.1418 9.75409 86.5603 9.28209C86.9654 8.84209 87.4618 8.62209 88.0526 8.62209C88.7018 8.62209 89.1562 8.83509 89.4146 9.26209H89.4351V6.55609H90.511V12.1631C90.511 12.6221 90.5233 13.0451 90.549 13.4331ZM89.4351 11.4451V10.6591C89.4351 10.5231 89.4249 10.4131 89.4054 10.3291C89.3449 10.0771 89.2146 9.86509 89.0167 9.69409C88.8167 9.52309 88.5756 9.43709 88.2977 9.43709C87.8967 9.43709 87.5828 9.59209 87.352 9.90309C87.1233 10.2141 87.0074 10.6111 87.0074 11.0961C87.0074 11.5621 87.1172 11.9401 87.3377 12.2311C87.5705 12.5411 87.8844 12.6961 88.2772 12.6961C88.63 12.6961 88.9121 12.5671 89.1264 12.3081C89.3336 12.0691 89.4351 11.7811 89.4351 11.4451Z" fill="white"/>
<path id="Vector_19" d="M99.7427 11.037C99.7427 11.762 99.5304 12.356 99.1058 12.822C98.6607 13.301 98.0719 13.54 97.3345 13.54C96.6258 13.54 96.0607 13.311 95.6381 12.851C95.2176 12.392 95.0073 11.813 95.0073 11.115C95.0073 10.385 95.2237 9.78605 95.6586 9.32105C96.0935 8.85605 96.6781 8.62305 97.4155 8.62305C98.1242 8.62305 98.6955 8.85205 99.1263 9.31105C99.5366 9.75705 99.7427 10.333 99.7427 11.037ZM98.6289 11.071C98.6289 10.636 98.5324 10.263 98.3407 9.95205C98.114 9.57605 97.794 9.38805 97.3755 9.38805C96.9448 9.38805 96.6166 9.57605 96.3899 9.95205C96.1971 10.263 96.1017 10.642 96.1017 11.09C96.1017 11.525 96.1981 11.898 96.3899 12.209C96.6227 12.585 96.9468 12.773 97.3653 12.773C97.7755 12.773 98.0986 12.582 98.3304 12.199C98.5284 11.882 98.6289 11.506 98.6289 11.071Z" fill="white"/>
<path id="Vector_20" d="M105.522 13.4331H104.448V10.7331C104.448 9.90106 104.124 9.48506 103.472 9.48506C103.153 9.48506 102.896 9.59906 102.697 9.82806C102.498 10.0571 102.399 10.3271 102.399 10.6361V13.4321H101.323V10.0661C101.323 9.65206 101.31 9.20306 101.285 8.71706H102.228L102.279 9.45406H102.308C102.434 9.22506 102.621 9.03606 102.865 8.88506C103.157 8.70906 103.483 8.62006 103.841 8.62006C104.291 8.62006 104.666 8.76206 104.965 9.04706C105.337 9.39606 105.522 9.91706 105.522 10.6091V13.4331Z" fill="white"/>
<path id="Vector_21" d="M112.755 9.50404H111.572V11.794C111.572 12.376 111.782 12.667 112.198 12.667C112.391 12.667 112.551 12.651 112.677 12.618L112.705 13.413C112.493 13.491 112.214 13.53 111.87 13.53C111.445 13.53 111.115 13.404 110.876 13.152C110.636 12.9 110.517 12.476 110.517 11.881V9.50404H109.811V8.71904H110.517V7.85504L111.571 7.54504V8.71804H112.754V9.50404H112.755Z" fill="white"/>
<path id="Vector_22" d="M118.446 13.4331H117.37V10.7531C117.37 9.90809 117.046 9.48509 116.396 9.48509C115.898 9.48509 115.557 9.73009 115.371 10.2201C115.339 10.3231 115.32 10.4491 115.32 10.5971V13.4321H114.247V6.55609H115.32V9.39709H115.341C115.679 8.88009 116.165 8.62209 116.793 8.62209C117.238 8.62209 117.607 8.76409 117.899 9.04909C118.263 9.40409 118.446 9.93209 118.446 10.6301V13.4331Z" fill="white"/>
<path id="Vector_23" d="M124.316 10.853C124.316 11.041 124.301 11.199 124.276 11.328H121.052C121.066 11.794 121.22 12.149 121.519 12.395C121.791 12.615 122.143 12.725 122.574 12.725C123.051 12.725 123.486 12.651 123.878 12.502L124.046 13.23C123.587 13.424 123.048 13.521 122.423 13.521C121.675 13.521 121.085 13.306 120.658 12.876C120.229 12.446 120.017 11.869 120.017 11.145C120.017 10.434 120.215 9.84201 120.614 9.37001C121.03 8.86601 121.594 8.61401 122.304 8.61401C123 8.61401 123.528 8.86601 123.885 9.37001C124.173 9.77001 124.316 10.265 124.316 10.853ZM123.29 10.582C123.298 10.271 123.227 10.003 123.082 9.77701C122.895 9.48601 122.611 9.34001 122.226 9.34001C121.876 9.34001 121.589 9.48201 121.371 9.76701C121.192 9.99401 121.087 10.265 121.052 10.582H123.29Z" fill="white"/>
</g>
</g>
</g>
</g>
</svg>
