<svg width="139" height="40" viewBox="0 0 139 40" fill="none" xmlns="http://www.w3.org/2000/svg">
<g id="googleplay">
<path id="path14" d="M133.611 40H5.58258C2.76723 40 0.461426 37.7487 0.461426 35V5C0.461426 2.25125 2.76723 2.11397e-06 5.58258 2.11397e-06H133.611C136.427 2.11397e-06 138.733 2.25125 138.733 5V35C138.733 37.7487 136.427 40 133.611 40Z" fill="black"/>
<path id="path16" d="M133.611 0.801252C135.983 0.801252 137.912 2.685 137.912 5V35C137.912 37.315 135.983 39.1988 133.611 39.1988H5.58258C3.21149 39.1988 1.28209 37.315 1.28209 35V5C1.28209 2.685 3.21149 0.801252 5.58258 0.801252H133.611ZM133.611 2.11397e-06H5.58258C2.76723 2.11397e-06 0.461426 2.25125 0.461426 5V35C0.461426 37.7487 2.76723 40 5.58258 40H133.611C136.427 40 138.733 37.7487 138.733 35V5C138.733 2.25125 136.427 2.11397e-06 133.611 2.11397e-06Z" fill="#A6A6A6"/>
<g id="g18">
<path id="path20" d="M49.0281 10.2437C49.0281 11.0787 48.7721 11.7475 48.2676 12.2462C47.6877 12.8375 46.9323 13.135 46.0066 13.135C45.122 13.135 44.3666 12.8325 43.7469 12.2362C43.126 11.6312 42.8162 10.8887 42.8162 9.99999C42.8162 9.11124 43.126 8.36874 43.7469 7.76874C44.3666 7.16749 45.122 6.86499 46.0066 6.86499C46.4471 6.86499 46.867 6.95374 47.2677 7.11874C47.6672 7.28499 47.9924 7.50999 48.2279 7.78749L47.6928 8.31499C47.2818 7.84124 46.7223 7.60749 46.0066 7.60749C45.3614 7.60749 44.8019 7.82749 44.3269 8.27124C43.857 8.71624 43.6215 9.29249 43.6215 9.99999C43.6215 10.7075 43.857 11.2887 44.3269 11.7337C44.8019 12.1725 45.3614 12.3975 46.0066 12.3975C46.6916 12.3975 47.2677 12.1725 47.7222 11.7287C48.0218 11.435 48.1921 11.03 48.2369 10.5125H46.0066V9.78999H48.982C49.0179 9.94624 49.0281 10.0975 49.0281 10.2437Z" fill="white" stroke="white" stroke-width="0.133858" stroke-miterlimit="10"/>
</g>
<g id="g22">
<path id="path24" d="M53.7484 7.73875H50.9536V9.63875H53.4732V10.3613H50.9536V12.2613H53.7484V12.9975H50.1624V7.0025H53.7484V7.73875Z" fill="white" stroke="white" stroke-width="0.133858" stroke-miterlimit="10"/>
</g>
<g id="g26">
<path id="path28" d="M57.0802 12.9975H56.289V7.73875H54.5747V7.0025H58.7958V7.73875H57.0802V12.9975Z" fill="white" stroke="white" stroke-width="0.133858" stroke-miterlimit="10"/>
</g>
<g id="g30">
<path id="path32" d="M61.8501 12.9975V7.0025H62.64V12.9975H61.8501Z" fill="white" stroke="white" stroke-width="0.133858" stroke-miterlimit="10"/>
</g>
<g id="g34">
<path id="path36" d="M66.1413 12.9975H65.3564V7.73875H63.6357V7.0025H67.862V7.73875H66.1413V12.9975Z" fill="white" stroke="white" stroke-width="0.133858" stroke-miterlimit="10"/>
</g>
<g id="g38">
<path id="path40" d="M75.8537 12.2262C75.2481 12.8325 74.4978 13.135 73.6029 13.135C72.7029 13.135 71.9526 12.8325 71.3471 12.2262C70.7428 11.6212 70.4419 10.8787 70.4419 9.99999C70.4419 9.12124 70.7428 8.37874 71.3471 7.77374C71.9526 7.16749 72.7029 6.86499 73.6029 6.86499C74.4927 6.86499 75.243 7.16749 75.8486 7.77874C76.458 8.38874 76.7588 9.12624 76.7588 9.99999C76.7588 10.8787 76.458 11.6212 75.8537 12.2262ZM71.9322 11.7237C72.3879 12.1725 72.9423 12.3975 73.6029 12.3975C74.2584 12.3975 74.8179 12.1725 75.2686 11.7237C75.7231 11.275 75.9535 10.6987 75.9535 9.99999C75.9535 9.30124 75.7231 8.72499 75.2686 8.27624C74.8179 7.82749 74.2584 7.60249 73.6029 7.60249C72.9423 7.60249 72.3879 7.82749 71.9322 8.27624C71.4777 8.72499 71.2472 9.30124 71.2472 9.99999C71.2472 10.6987 71.4777 11.275 71.9322 11.7237Z" fill="white" stroke="white" stroke-width="0.133858" stroke-miterlimit="10"/>
</g>
<g id="g42">
<path id="path44" d="M77.8687 12.9975V7.0025H78.8289L81.8145 11.665H81.8491L81.8145 10.5125V7.0025H82.6044V12.9975H81.7799L78.6535 8.105H78.6189L78.6535 9.2625V12.9975H77.8687Z" fill="white" stroke="white" stroke-width="0.133858" stroke-miterlimit="10"/>
</g>
<path id="path46" d="M70.2471 21.7525C67.8415 21.7525 65.8762 23.54 65.8762 26.0063C65.8762 28.4525 67.8415 30.2588 70.2471 30.2588C72.6579 30.2588 74.6232 28.4525 74.6232 26.0063C74.6232 23.54 72.6579 21.7525 70.2471 21.7525ZM70.2471 28.5838C68.9272 28.5838 67.7916 27.52 67.7916 26.0063C67.7916 24.4725 68.9272 23.4275 70.2471 23.4275C71.5671 23.4275 72.7079 24.4725 72.7079 26.0063C72.7079 27.52 71.5671 28.5838 70.2471 28.5838ZM60.7103 21.7525C58.2995 21.7525 56.3394 23.54 56.3394 26.0063C56.3394 28.4525 58.2995 30.2588 60.7103 30.2588C63.1198 30.2588 65.0812 28.4525 65.0812 26.0063C65.0812 23.54 63.1198 21.7525 60.7103 21.7525ZM60.7103 28.5838C59.389 28.5838 58.2496 27.52 58.2496 26.0063C58.2496 24.4725 59.389 23.4275 60.7103 23.4275C62.0302 23.4275 63.1659 24.4725 63.1659 26.0063C63.1659 27.52 62.0302 28.5838 60.7103 28.5838ZM49.3618 23.0563V24.8638H53.7826C53.6533 25.8738 53.3076 26.6163 52.7776 27.1338C52.1323 27.7588 51.1273 28.4525 49.3618 28.4525C46.6412 28.4525 44.5108 26.3088 44.5108 23.6525C44.5108 20.9963 46.6412 18.8525 49.3618 18.8525C50.8328 18.8525 51.9032 19.4138 52.6931 20.1413L53.9977 18.8675C52.8928 17.8375 51.4231 17.0463 49.3618 17.0463C45.631 17.0463 42.4956 20.01 42.4956 23.6525C42.4956 27.295 45.631 30.2588 49.3618 30.2588C51.3782 30.2588 52.8928 29.6138 54.0835 28.4038C55.3036 27.2125 55.6839 25.5375 55.6839 24.185C55.6839 23.765 55.648 23.3788 55.584 23.0563H49.3618ZM95.7671 24.4575C95.4074 23.5063 94.2974 21.7525 92.0364 21.7525C89.7959 21.7525 87.9305 23.4763 87.9305 26.0063C87.9305 28.3888 89.7767 30.2588 92.2515 30.2588C94.2526 30.2588 95.4074 29.0675 95.8824 28.3738L94.3972 27.4075C93.9018 28.115 93.227 28.5838 92.2515 28.5838C91.2823 28.5838 90.5871 28.15 90.1415 27.295L95.9681 24.9413L95.7671 24.4575ZM89.8266 25.8738C89.7767 24.2338 91.1312 23.3938 92.1017 23.3938C92.8622 23.3938 93.5074 23.765 93.7225 24.2963L89.8266 25.8738ZM85.0908 30H87.0061V17.5H85.0908V30ZM81.9541 22.7H81.8901C81.4599 22.2025 80.6393 21.7525 79.5997 21.7525C77.418 21.7525 75.4234 23.6225 75.4234 26.02C75.4234 28.4038 77.418 30.2588 79.5997 30.2588C80.6393 30.2588 81.4599 29.805 81.8901 29.2925H81.9541V29.9025C81.9541 31.5288 81.0643 32.4025 79.6291 32.4025C78.4589 32.4025 77.733 31.5775 77.4334 30.8838L75.7677 31.5625C76.2479 32.69 77.5192 34.0775 79.6291 34.0775C81.8747 34.0775 83.7696 32.7875 83.7696 29.6488V22.0113H81.9541V22.7ZM79.7635 28.5838C78.4436 28.5838 77.3387 27.505 77.3387 26.02C77.3387 24.5213 78.4436 23.4275 79.7635 23.4275C81.0643 23.4275 82.0898 24.5213 82.0898 26.02C82.0898 27.505 81.0643 28.5838 79.7635 28.5838ZM104.734 17.5H100.153V30H102.064V25.2638H104.734C106.856 25.2638 108.936 23.765 108.936 21.3813C108.936 18.9988 106.851 17.5 104.734 17.5ZM104.784 23.525H102.064V19.2388H104.784C106.21 19.2388 107.025 20.395 107.025 21.3813C107.025 22.3488 106.21 23.525 104.784 23.525ZM116.592 21.7288C115.212 21.7288 113.777 22.3238 113.187 23.6425L114.882 24.3363C115.247 23.6425 115.918 23.4175 116.627 23.4175C117.618 23.4175 118.623 23.9988 118.638 25.025V25.1563C118.293 24.9613 117.553 24.6725 116.642 24.6725C114.817 24.6725 112.956 25.6538 112.956 27.485C112.956 29.16 114.452 30.2388 116.133 30.2388C117.418 30.2388 118.127 29.6725 118.573 29.0138H118.638V29.98H120.483V25.185C120.483 22.9688 118.788 21.7288 116.592 21.7288ZM116.362 28.5788C115.737 28.5788 114.866 28.2763 114.866 27.52C114.866 26.5525 115.952 26.1813 116.892 26.1813C117.733 26.1813 118.127 26.3625 118.638 26.6013C118.488 27.7588 117.468 28.5788 116.362 28.5788ZM127.205 22.0025L125.009 27.4213H124.944L122.674 22.0025H120.614L124.024 29.575L122.078 33.7888H124.074L129.33 22.0025H127.205ZM109.986 30H111.901V17.5H109.986V30Z" fill="white"/>
<g id="g48">
<path id="path64" d="M11.1493 7.53881C10.8484 7.84631 10.6743 8.32506 10.6743 8.94506V31.0601C10.6743 31.6801 10.8484 32.1588 11.1493 32.4663L11.2236 32.5338L23.9163 20.1463V19.8538L11.2236 7.46631L11.1493 7.53881Z" fill="url(#paint0_linear_4818_4667)"/>
</g>
<g id="g66">
<path id="path78" d="M28.1427 24.2775L23.9165 20.1462V19.8537L28.1479 15.7225L28.2426 15.7762L33.2537 18.56C34.6837 19.35 34.6837 20.65 33.2537 21.445L28.2426 24.2237L28.1427 24.2775Z" fill="url(#paint1_linear_4818_4667)"/>
</g>
<g id="g80">
<path id="path88" d="M28.2426 24.2238L23.9165 20L11.1494 32.4663C11.6244 32.9538 12.399 33.0125 13.2798 32.525L28.2426 24.2238Z" fill="url(#paint2_linear_4818_4667)"/>
</g>
<g id="g90">
<path id="path104" d="M28.2426 15.7763L13.2798 7.475C12.399 6.9925 11.6244 7.05125 11.1494 7.53875L23.9165 20L28.2426 15.7763Z" fill="url(#paint3_linear_4818_4667)"/>
</g>
</g>
<defs>
<linearGradient id="paint0_linear_4818_4667" x1="22.7894" y1="31.2904" x2="6.01179" y2="14.1062" gradientUnits="userSpaceOnUse">
<stop stop-color="#00A0FF"/>
<stop offset="0.0066" stop-color="#00A1FF"/>
<stop offset="0.2601" stop-color="#00BEFF"/>
<stop offset="0.5122" stop-color="#00D2FF"/>
<stop offset="0.7604" stop-color="#00DFFF"/>
<stop offset="1" stop-color="#00E3FF"/>
</linearGradient>
<linearGradient id="paint1_linear_4818_4667" x1="35.1159" y1="19.9986" x2="10.3326" y2="19.9986" gradientUnits="userSpaceOnUse">
<stop stop-color="#FFE000"/>
<stop offset="0.4087" stop-color="#FFBD00"/>
<stop offset="0.7754" stop-color="#FFA500"/>
<stop offset="1" stop-color="#FF9C00"/>
</linearGradient>
<linearGradient id="paint2_linear_4818_4667" x1="25.8901" y1="17.7039" x2="3.13837" y2="-5.59914" gradientUnits="userSpaceOnUse">
<stop stop-color="#FF3A44"/>
<stop offset="1" stop-color="#C31162"/>
</linearGradient>
<linearGradient id="paint3_linear_4818_4667" x1="7.93568" y1="39.8238" x2="18.0954" y2="29.418" gradientUnits="userSpaceOnUse">
<stop stop-color="#32A071"/>
<stop offset="0.0685" stop-color="#2DA771"/>
<stop offset="0.4762" stop-color="#15CF74"/>
<stop offset="0.8009" stop-color="#06E775"/>
<stop offset="1" stop-color="#00F076"/>
</linearGradient>
</defs>
</svg>
