<svg width="78" height="78" viewBox="0 0 78 78" fill="none" xmlns="http://www.w3.org/2000/svg">
<g id="Group 4">
<g id="Clip path group">
<mask id="mask0_4818_778" style="mask-type:luminance" maskUnits="userSpaceOnUse" x="0" y="15" width="35" height="39">
<g id="f421344985">
<path id="Vector" d="M21.1836 15.1804L34.0966 48.2437L13.5557 53.184L0.642701 20.1207L21.1836 15.1804Z" fill="white"/>
</g>
</mask>
<g mask="url(#mask0_4818_778)">
<g id="Group">
<g id="Clip path group_2">
<mask id="mask1_4818_778" style="mask-type:luminance" maskUnits="userSpaceOnUse" x="0" y="19" width="82" height="44">
<g id="f36e1354ea">
<path id="Vector_2" d="M11.0791 19.6296L81.8766 31.9748L71.5152 62.0314L0.71767 49.6863L11.0791 19.6296Z" fill="white"/>
</g>
</mask>
<g mask="url(#mask1_4818_778)">
<g id="Group_2">
<g id="Clip path group_3">
<mask id="mask2_4818_778" style="mask-type:luminance" maskUnits="userSpaceOnUse" x="-1" y="20" width="84" height="42">
<g id="90d24317e7">
<path id="Vector_3" d="M11.1337 20.4712L82.7381 33.3862L71.4619 61.1888L-0.142486 48.2738L11.1337 20.4712Z" fill="white"/>
</g>
</mask>
<g mask="url(#mask2_4818_778)">
<g id="Group_3">
<path id="Vector_4" d="M21.3154 42.6252C21.0138 43.1101 20.5838 43.616 21.2207 44.2323C21.5137 44.5127 21.2059 44.7471 21.0727 44.966C20.3681 46.1261 19.6621 47.2828 19.0736 48.4842C18.785 49.0788 18.1298 49.0996 17.3408 48.9843C16.3674 48.8351 15.4282 48.5709 14.5762 48.2004C12.3324 47.2453 11.1114 45.8634 9.96569 44.4124C9.5969 43.9644 9.54201 43.4536 9.80842 43.0157C10.9144 41.1374 10.3121 39.0713 10.5135 37.0902C10.715 35.1091 10.8138 33.1319 11.1637 31.1778C11.6086 28.7038 11.8749 26.2098 12.0038 23.7019C12.0349 22.4928 12.3238 21.3096 12.8557 20.1826C13.2755 19.3512 14.0532 19.2561 15.2521 19.3414C18.0776 19.5373 20.0446 20.709 21.6602 22.0768C22.4178 22.7195 23.9401 23.4192 23.6684 24.1197C23.3645 24.9134 23.6546 25.6713 23.5272 26.4279C23.0926 29.0049 22.7004 31.5915 22.3928 34.1834C22.2994 35.0081 21.9983 35.8086 21.829 36.6093C21.5178 38.0927 21.8437 39.6039 21.6232 41.0812C21.5726 41.589 21.3091 42.0733 21.3154 42.6252Z" fill="#FF6A1A"/>
</g>
</g>
</g>
</g>
</g>
</g>
</g>
</g>
</g>
<g id="Clip path group_4">
<mask id="mask3_4818_778" style="mask-type:luminance" maskUnits="userSpaceOnUse" x="25" y="20" width="37" height="33">
<g id="f38082d23e">
<path id="Vector_5" d="M51.2161 20.8215L61.1558 46.2318L35.4623 52.3645L25.5226 26.9543L51.2161 20.8215Z" fill="white"/>
</g>
</mask>
<g mask="url(#mask3_4818_778)">
<g id="Group_4">
<g id="Clip path group_5">
<mask id="mask4_4818_778" style="mask-type:luminance" maskUnits="userSpaceOnUse" x="0" y="19" width="82" height="44">
<g id="22578b6966">
<path id="Vector_6" d="M11.0786 19.6284L81.8761 31.9736L71.5147 62.0302L0.717182 49.6851L11.0786 19.6284Z" fill="white"/>
</g>
</mask>
<g mask="url(#mask4_4818_778)">
<g id="Group_5">
<g id="Clip path group_6">
<mask id="mask5_4818_778" style="mask-type:luminance" maskUnits="userSpaceOnUse" x="-1" y="20" width="84" height="42">
<g id="f56afea480">
<path id="Vector_7" d="M11.1327 20.47L82.7371 33.3849L71.4609 61.1876L-0.143462 48.2726L11.1327 20.47Z" fill="white"/>
</g>
</mask>
<g mask="url(#mask5_4818_778)">
<g id="Group_6">
<path id="Vector_8" d="M40.7142 48.1903C39.0166 48.6264 37.8601 48.1946 36.694 47.2919C34.9342 45.9375 33.6727 44.4335 32.4266 42.9042C32.0483 42.4335 32.2584 41.8795 32.916 41.6139C34.2462 41.044 33.5684 39.5577 35.4879 39.3296C35.345 38.1915 36.5442 37.4698 37.4667 36.7441C38.5542 35.8917 38.7818 34.8201 39.3724 33.8593C40.7943 31.5442 42.244 29.246 43.8399 26.9872C44.0336 26.7298 44.2022 26.4621 44.3421 26.1876C44.9011 24.9896 45.3486 24.8426 47.2894 25.2749C47.5911 25.3261 47.8851 25.4084 48.1551 25.5203C50.1415 26.5096 52.1171 27.5103 54.0805 28.5191C54.3826 28.6707 54.8385 28.9915 54.4401 29.1192C53.058 29.5647 53.7471 30.4939 53.3926 31.1621C52.3028 33.2402 50.3816 35.0186 48.9517 36.9664C48.1311 38.085 46.9621 39.1279 46.2744 40.2542C45.1857 42.0241 43.2716 43.3966 41.8942 45.01C41.0439 45.9581 40.636 47.0579 40.7142 48.1903Z" fill="#FF6A1A"/>
</g>
</g>
</g>
</g>
</g>
</g>
</g>
</g>
</g>
<g id="Clip path group_7">
<mask id="mask6_4818_778" style="mask-type:luminance" maskUnits="userSpaceOnUse" x="47" y="43" width="31" height="21">
<g id="7830c2faa3">
<path id="Vector_9" d="M71.7922 43.9333L77.021 57.3778L53.1912 63.2215L47.9624 49.777L71.7922 43.9333Z" fill="white"/>
</g>
</mask>
<g mask="url(#mask6_4818_778)">
<g id="Group_7">
<g id="Clip path group_8">
<mask id="mask7_4818_778" style="mask-type:luminance" maskUnits="userSpaceOnUse" x="0" y="19" width="82" height="44">
<g id="85469c9b0b">
<path id="Vector_10" d="M11.0788 19.6291L81.8764 31.9743L71.515 62.031L0.717426 49.6858L11.0788 19.6291Z" fill="white"/>
</g>
</mask>
<g mask="url(#mask7_4818_778)">
<g id="Group_8">
<g id="Clip path group_9">
<mask id="mask8_4818_778" style="mask-type:luminance" maskUnits="userSpaceOnUse" x="-1" y="20" width="84" height="42">
<g id="32c91b4b19">
<path id="Vector_11" d="M11.133 20.4707L82.7374 33.3857L71.4612 61.1883L-0.143218 48.2733L11.133 20.4707Z" fill="white"/>
</g>
</mask>
<g mask="url(#mask8_4818_778)">
<g id="Group_9">
<path id="Vector_12" d="M73.0456 52.1179C72.169 52.614 73.2469 53.4648 72.0114 53.8393C71.1749 54.1064 70.3598 54.4012 69.5754 54.7222C67.3015 55.6114 65.0667 56.5472 62.8612 57.4816C61.1911 58.1918 59.5883 58.9567 58.047 59.7742C56.3621 60.6662 55.506 60.7165 53.7021 59.9054C51.8994 59.0973 51.7712 58.9311 52.6082 57.7104C53.3202 56.6698 53.566 55.5859 53.5828 54.4905C53.5881 54.0439 53.9732 53.8178 54.4053 53.597C58.5899 51.4811 62.7815 49.3703 67.3765 47.6095C68.2417 47.2792 69.234 47.1122 70.1299 46.7958C71.5918 46.2814 72.9355 46.6891 73.2644 47.741C73.7321 49.2144 73.5229 50.7014 73.0456 52.1179Z" fill="#FF6A1A"/>
</g>
</g>
</g>
</g>
</g>
</g>
</g>
</g>
</g>
</g>
</svg>
