<svg width="46" height="44" viewBox="0 0 46 44" fill="none" xmlns="http://www.w3.org/2000/svg">
<g id="Group 1">
<g id="Clip path group">
<mask id="mask0_4818_4584" style="mask-type:luminance" maskUnits="userSpaceOnUse" x="0" y="29" width="29" height="15">
<g id="f421344985">
<path id="Vector" d="M0 29.3911H28.5513V43.6667H0V29.3911Z" fill="white"/>
</g>
</mask>
<g mask="url(#mask0_4818_4584)">
<g id="Group">
<g id="Clip path group_2">
<mask id="mask1_4818_4584" style="mask-type:luminance" maskUnits="userSpaceOnUse" x="-1" y="-8" width="52" height="58">
<g id="f36e1354ea">
<path id="Vector_2" d="M-0.531738 35.0888L23.0697 -7.99725L50.135 6.82948L26.5336 49.9156L-0.531738 35.0888Z" fill="white"/>
</g>
</mask>
<g mask="url(#mask1_4818_4584)">
<g id="Group_2">
<g id="Clip path group_3">
<mask id="mask2_4818_4584" style="mask-type:luminance" maskUnits="userSpaceOnUse" x="-1" y="-8" width="52" height="58">
<g id="90d24317e7">
<path id="Vector_3" d="M-0.531738 35.0888L23.0697 -7.99725L50.135 6.82948L26.5336 49.9156L-0.531738 35.0888Z" fill="white"/>
</g>
</mask>
<g mask="url(#mask2_4818_4584)">
<g id="Group_3">
<path id="Vector_4" d="M22.3155 36.355C22.7288 36.6568 23.1487 37.0406 23.7752 36.8142C24.0606 36.7093 24.2443 36.952 24.4313 37.0865C25.4219 37.7983 26.4093 38.5101 27.4491 39.1629C27.9641 39.4843 27.9182 39.8813 27.7345 40.3241C27.5016 40.8686 27.167 41.3639 26.7438 41.7805C25.6482 42.8827 24.264 43.2665 22.8239 43.5879C22.3778 43.6962 21.9055 43.6011 21.5315 43.3321C19.9242 42.2004 17.9757 42.0429 16.1847 41.4263C14.3937 40.8096 12.5961 40.2552 10.8445 39.5565C8.62702 38.6708 6.37349 37.8869 4.09372 37.1816C2.99155 36.8601 1.93859 36.3911 0.961076 35.7908C0.242701 35.3315 0.232861 34.8428 0.429676 34.1474C0.888911 32.5073 2.15509 31.6249 3.5656 31.0016C4.22821 30.7097 5.01875 29.9749 5.63215 30.3128C6.32757 30.6933 7.04922 30.7097 7.72823 30.9754C10.0408 31.8807 12.3665 32.7631 14.7053 33.5963C15.4499 33.8587 16.1519 34.2392 16.867 34.541C18.1922 35.0986 19.606 35.2823 20.9345 35.7842C21.3938 35.9417 21.8103 36.2205 22.3155 36.355Z" fill="#FF6A1A"/>
</g>
</g>
</g>
</g>
</g>
</g>
</g>
</g>
</g>
<g id="Clip path group_4">
<mask id="mask3_4818_4584" style="mask-type:luminance" maskUnits="userSpaceOnUse" x="10" y="9" width="24" height="19">
<g id="f38082d23e">
<path id="Vector_5" d="M10.9167 9.23724H33.5898V27.7116H10.9167V9.23724Z" fill="white"/>
</g>
</mask>
<g mask="url(#mask3_4818_4584)">
<g id="Group_4">
<g id="Clip path group_5">
<mask id="mask4_4818_4584" style="mask-type:luminance" maskUnits="userSpaceOnUse" x="-1" y="-8" width="52" height="58">
<g id="22578b6966">
<path id="Vector_6" d="M-0.531494 35.0889L23.0699 -7.99716L50.1353 6.82957L26.5339 49.9157L-0.531494 35.0889Z" fill="white"/>
</g>
</mask>
<g mask="url(#mask4_4818_4584)">
<g id="Group_5">
<g id="Clip path group_6">
<mask id="mask5_4818_4584" style="mask-type:luminance" maskUnits="userSpaceOnUse" x="-1" y="-8" width="52" height="58">
<g id="f56afea480">
<path id="Vector_7" d="M-0.531494 35.0889L23.0699 -7.99716L50.1353 6.82957L26.5339 49.9157L-0.531494 35.0889Z" fill="white"/>
</g>
</mask>
<g mask="url(#mask5_4818_4584)">
<g id="Group_6">
<path id="Vector_8" d="M33.3669 23.1554C33.5965 24.3428 33.0389 24.9595 32.0187 25.4581C30.4869 26.2126 28.8664 26.6128 27.223 26.9966C26.7179 27.1114 26.1996 26.8325 26.0159 26.3471C25.6124 25.3564 24.0773 25.3925 24.0773 24.1198C22.9456 23.9098 22.3781 22.9618 21.7745 22.1877C21.066 21.2758 20.0426 20.8494 19.17 20.2228C17.0674 18.7139 14.9844 17.1919 12.9572 15.5878C12.7276 15.3976 12.4849 15.2205 12.2323 15.0597C11.1235 14.3905 11.0317 14.0691 11.6812 12.9571C11.7665 12.7799 11.8813 12.6159 12.0223 12.4749C13.2229 11.481 14.4333 10.4969 15.6503 9.52266C15.834 9.37177 16.2014 9.16839 16.2801 9.45377C16.5556 10.4444 17.5463 10.2542 18.1597 10.6543C20.0688 11.891 21.5875 13.5738 23.3294 14.9908C24.3298 15.8043 25.2155 16.8179 26.2389 17.5494C27.8463 18.7041 28.9681 20.2753 30.3885 21.571C31.2184 22.3583 32.2484 22.9061 33.3669 23.1554Z" fill="#FF6A1A"/>
</g>
</g>
</g>
</g>
</g>
</g>
</g>
</g>
</g>
<g id="Clip path group_7">
<mask id="mask6_4818_4584" style="mask-type:luminance" maskUnits="userSpaceOnUse" x="32" y="0" width="14" height="18">
<g id="7830c2faa3">
<path id="Vector_9" d="M32.75 0H45.3462V17.6346H32.75V0Z" fill="white"/>
</g>
</mask>
<g mask="url(#mask6_4818_4584)">
<g id="Group_7">
<g id="Clip path group_8">
<mask id="mask7_4818_4584" style="mask-type:luminance" maskUnits="userSpaceOnUse" x="-1" y="-8" width="52" height="58">
<g id="85469c9b0b">
<path id="Vector_10" d="M-0.531738 35.0888L23.0697 -7.99731L50.135 6.82942L26.5336 49.9155L-0.531738 35.0888Z" fill="white"/>
</g>
</mask>
<g mask="url(#mask7_4818_4584)">
<g id="Group_8">
<g id="Clip path group_9">
<mask id="mask8_4818_4584" style="mask-type:luminance" maskUnits="userSpaceOnUse" x="-1" y="-8" width="52" height="58">
<g id="32c91b4b19">
<path id="Vector_11" d="M-0.531738 35.0888L23.0697 -7.99731L50.135 6.82942L26.5336 49.9155L-0.531738 35.0888Z" fill="white"/>
</g>
</mask>
<g mask="url(#mask8_4818_4584)">
<g id="Group_9">
<path id="Vector_12" d="M39.2153 1.44981C39.5991 2.16162 40.675 1.68271 40.8719 2.5979C41.0195 3.22114 41.1999 3.83783 41.4131 4.4414C41.9871 6.17993 42.6169 7.90534 43.25 9.61107C43.7322 10.9035 44.2833 12.1664 44.9 13.403C45.5725 14.7545 45.4872 15.3318 44.3358 16.2995C43.1877 17.2672 42.9909 17.3065 41.833 16.4242C40.8456 15.673 39.7369 15.217 38.579 14.9087C38.1066 14.784 37.9295 14.4691 37.7655 14.1247C36.2008 10.7952 34.6427 7.46251 33.5208 3.9592C33.3109 3.29987 33.2945 2.60118 33.1042 1.92544C32.7959 0.823281 33.4454 0.0491418 34.6131 0.118027C36.25 0.209874 37.7917 0.751115 39.2153 1.44981Z" fill="#FF6A1A"/>
</g>
</g>
</g>
</g>
</g>
</g>
</g>
</g>
</g>
</g>
</svg>
