<svg width="57" height="58" viewBox="0 0 57 58" fill="none" xmlns="http://www.w3.org/2000/svg">
<g id="Group 3">
<g id="Clip path group">
<mask id="mask0_4818_4465" style="mask-type:luminance" maskUnits="userSpaceOnUse" x="4" y="1" width="20" height="34">
<g id="f421344985">
<path id="Vector" d="M23.5547 5.09375L21.7968 34.4177L4.64584 31.0073L6.40375 1.68332L23.5547 5.09375Z" fill="white"/>
</g>
</mask>
<g mask="url(#mask0_4818_4465)">
<g id="Group">
<g id="Clip path group_2">
<mask id="mask1_4818_4465" style="mask-type:luminance" maskUnits="userSpaceOnUse" x="-4" y="4" width="68" height="54">
<g id="f36e1354ea">
<path id="Vector_2" d="M14.4179 4.93348L63.3456 38.7587L45.1378 57.7518L-3.78995 23.9265L14.4179 4.93348Z" fill="white"/>
</g>
</mask>
<g mask="url(#mask1_4818_4465)">
<g id="Group_2">
<g id="Clip path group_3">
<mask id="mask2_4818_4465" style="mask-type:luminance" maskUnits="userSpaceOnUse" x="-4" y="5" width="68" height="53">
<g id="90d24317e7">
<path id="Vector_3" d="M14.1678 5.58372L63.5034 40.1153L45.3893 57.1017L-3.94625 22.5701L14.1678 5.58372Z" fill="white"/>
</g>
</mask>
<g mask="url(#mask2_4818_4465)">
<g id="Group_3">
<path id="Vector_4" d="M14.1376 25.7628C13.7428 26.0224 13.2443 26.2534 13.5092 26.9374C13.6322 27.2497 13.3196 27.319 13.1436 27.4373C12.2118 28.0645 11.2802 28.6886 10.4214 29.387C9.99842 29.7337 9.49883 29.5221 8.94586 29.1617C8.26615 28.7119 7.65195 28.1877 7.14009 27.6137C5.78509 26.1178 5.34668 24.656 4.98882 23.1684C4.86702 22.7039 5.00287 22.3011 5.35493 22.0645C6.83729 21.037 7.10103 19.2757 7.93931 17.8572C8.7776 16.4386 9.53742 14.9875 10.4779 13.6407C11.67 11.9363 12.7349 10.1548 13.7013 8.31535C14.1439 7.41776 14.7713 6.62902 15.5617 5.96679C16.1655 5.48779 16.7829 5.6861 17.6543 6.16607C19.7097 7.29341 20.7815 8.85609 21.5214 10.4441C21.8679 11.1898 22.7692 12.2435 22.3222 12.6756C21.8186 13.1665 21.7739 13.8366 21.4158 14.3608C20.1957 16.1462 19.0041 17.9535 17.8742 19.7941C17.5181 20.3813 17.0143 20.8783 16.6094 21.4211C15.8612 22.4277 15.5822 23.6761 14.9043 24.7095C14.6902 25.0735 14.3243 25.346 14.1376 25.7628Z" fill="#FF6A1A"/>
</g>
</g>
</g>
</g>
</g>
</g>
</g>
</g>
</g>
<g id="Clip path group_4">
<mask id="mask3_4818_4465" style="mask-type:luminance" maskUnits="userSpaceOnUse" x="21" y="15" width="24" height="28">
<g id="f38082d23e">
<path id="Vector_5" d="M44.1692 19.7458L42.83 42.2872L21.3934 37.9864L22.7325 15.4451L44.1692 19.7458Z" fill="white"/>
</g>
</mask>
<g mask="url(#mask3_4818_4465)">
<g id="Group_4">
<g id="Clip path group_5">
<mask id="mask4_4818_4465" style="mask-type:luminance" maskUnits="userSpaceOnUse" x="-4" y="4" width="68" height="54">
<g id="22578b6966">
<path id="Vector_6" d="M14.4176 4.9325L63.3454 38.7577L45.1375 57.7508L-3.7902 23.9256L14.4176 4.9325Z" fill="white"/>
</g>
</mask>
<g mask="url(#mask4_4818_4465)">
<g id="Group_5">
<g id="Clip path group_6">
<mask id="mask5_4818_4465" style="mask-type:luminance" maskUnits="userSpaceOnUse" x="-4" y="5" width="68" height="53">
<g id="f56afea480">
<path id="Vector_7" d="M14.1676 5.58274L63.5031 40.1144L45.3891 57.1007L-3.94649 22.5691L14.1676 5.58274Z" fill="white"/>
</g>
</mask>
<g mask="url(#mask5_4818_4465)">
<g id="Group_6">
<path id="Vector_8" d="M26.7879 36.6706C25.3609 36.4096 24.6415 35.6841 24.0781 34.6015C23.2252 32.9735 22.7986 31.4059 22.3924 29.8246C22.2714 29.3398 22.6213 28.9964 23.2076 29.0248C24.4048 29.0579 24.4108 27.706 25.9324 28.2002C26.2196 27.2955 27.3712 27.1691 28.316 26.9437C29.4289 26.6803 29.9715 25.954 30.7484 25.4369C32.6197 24.1904 34.506 22.9662 36.4886 21.8224C36.7234 21.6961 36.9429 21.5534 37.1432 21.3957C37.9787 20.6893 38.366 20.7341 39.6746 21.7319C39.8836 21.875 40.076 22.0388 40.2401 22.2165C41.3899 23.6487 42.5276 25.0857 43.6534 26.5246C43.8279 26.7433 44.0593 27.1425 43.7156 27.1003C42.5224 26.9557 42.7181 27.8929 42.2201 28.2721C40.6805 29.4556 38.6201 30.1257 36.8702 31.0934C35.8656 31.6494 34.6254 32.0277 33.7181 32.6356C32.2863 33.5879 30.3719 33.9555 28.7774 34.6901C27.8096 35.1077 27.1217 35.7926 26.7879 36.6706Z" fill="#FF6A1A"/>
</g>
</g>
</g>
</g>
</g>
</g>
</g>
</g>
</g>
<g id="Clip path group_7">
<mask id="mask6_4818_4465" style="mask-type:luminance" maskUnits="userSpaceOnUse" x="30" y="40" width="22" height="17">
<g id="7830c2faa3">
<path id="Vector_9" d="M51.6204 44.2488L50.8892 56.1648L30.9535 52.2936L31.6847 40.3776L51.6204 44.2488Z" fill="white"/>
</g>
</mask>
<g mask="url(#mask6_4818_4465)">
<g id="Group_7">
<g id="Clip path group_8">
<mask id="mask7_4818_4465" style="mask-type:luminance" maskUnits="userSpaceOnUse" x="-4" y="4" width="68" height="54">
<g id="85469c9b0b">
<path id="Vector_10" d="M14.4179 4.93324L63.3456 38.7585L45.1378 57.7515L-3.78995 23.9263L14.4179 4.93324Z" fill="white"/>
</g>
</mask>
<g mask="url(#mask7_4818_4465)">
<g id="Group_8">
<g id="Clip path group_9">
<mask id="mask8_4818_4465" style="mask-type:luminance" maskUnits="userSpaceOnUse" x="-4" y="5" width="68" height="53">
<g id="32c91b4b19">
<path id="Vector_11" d="M14.1678 5.58347L63.5034 40.1151L45.3893 57.1014L-3.94625 22.5698L14.1678 5.58347Z" fill="white"/>
</g>
</mask>
<g mask="url(#mask8_4818_4465)">
<g id="Group_9">
<path id="Vector_12" d="M49.7247 50.8331C48.8939 50.9022 49.4091 51.9154 48.3506 51.7686C47.6294 51.6794 46.9146 51.6184 46.2138 51.5878C44.1965 51.4679 42.1926 51.3966 40.2111 51.3345C38.7096 51.2894 37.2399 51.3088 35.7981 51.3889C34.2226 51.4754 33.5618 51.2164 32.4873 49.9814C31.4126 48.7489 31.3739 48.5796 32.4262 47.9521C33.322 47.4167 33.8825 46.6871 34.275 45.8695C34.4338 45.5356 34.8016 45.4992 35.2029 45.4831C39.0814 45.3431 42.9634 45.2095 47.0272 45.4789C47.792 45.5305 48.5957 45.7489 49.3786 45.8217C50.6557 45.9418 51.5242 46.7141 51.4067 47.6189C51.2474 48.8885 50.5746 49.9338 49.7247 50.8331Z" fill="#FF6A1A"/>
</g>
</g>
</g>
</g>
</g>
</g>
</g>
</g>
</g>
</g>
</svg>
